<svg width="43" height="35" viewBox="0 0 43 35" fill="none" xmlns="http://www.w3.org/2000/svg">
<path d="M42.28 34.3H26.04C24.4533 29.1667 23.66 23.8467 23.66 18.34C23.66 12.74 25.1067 8.30666 28 5.03999C30.9867 1.68 35.3733 0 41.16 0V7.84C36.4933 7.84 34.16 10.6867 34.16 16.38V19.04H42.28V34.3ZM18.62 34.3H2.38C0.793333 29.1667 0 23.8467 0 18.34C0 12.74 1.44667 8.30666 4.34 5.03999C7.32667 1.68 11.7133 0 17.5 0V7.84C12.8333 7.84 10.5 10.6867 10.5 16.38V19.04H18.62V34.3Z" fill="#C23893"/>
</svg>
