<svg width="43" height="35" viewBox="0 0 43 35" fill="none" xmlns="http://www.w3.org/2000/svg">
<path d="M1.98896e-05 -0.000194668L16.24 -0.000196088C17.8267 5.13314 18.62 10.4531 18.62 15.9598C18.62 21.5598 17.1734 25.9931 14.28 29.2598C11.2934 32.6198 6.90669 34.2998 1.12003 34.2998L1.12002 26.4598C5.78669 26.4598 8.12002 23.6131 8.12002 17.9198L8.12002 15.2598L2.12237e-05 15.2598L1.98896e-05 -0.000194668ZM23.66 -0.000196736L39.9 -0.000198156C41.4867 5.13314 42.28 10.4531 42.28 15.9598C42.28 21.5598 40.8334 25.9931 37.94 29.2598C34.9534 32.6198 30.5667 34.2998 24.78 34.2998L24.78 26.4598C29.4467 26.4598 31.78 23.6131 31.78 17.9198L31.78 15.2598L23.66 15.2598L23.66 -0.000196736Z" fill="#C23893"/>
</svg>
