<svg width="1224" height="48" viewBox="0 0 1224 48" fill="none" xmlns="http://www.w3.org/2000/svg">
<path d="M64.9166 34.2443L58.0778 11.0557H65.0977L68.268 25.3221H68.4492L72.2083 11.0557H77.7337L81.4928 25.3674H81.6739L84.8442 11.0557H91.8642L85.0254 34.2443H79.0018L75.0616 21.2913H74.8804L70.9402 34.2443H64.9166Z" fill="#D4D4D8"/>
<path d="M96.815 34.516C95.7054 34.516 94.7241 34.3349 93.8711 33.9726C93.0257 33.6027 92.3614 33.0441 91.8784 32.2968C91.3953 31.5495 91.1537 30.5984 91.1537 29.4435C91.1537 28.4924 91.316 27.681 91.6406 27.0092C91.9652 26.3298 92.4181 25.775 92.9993 25.3448C93.5805 24.9145 94.2561 24.5862 95.026 24.3597C95.8035 24.1333 96.6414 23.9861 97.5396 23.9181C98.5134 23.8427 99.2946 23.7521 99.8834 23.6464C100.48 23.5332 100.91 23.3784 101.174 23.1822C101.438 22.9784 101.57 22.7104 101.57 22.3783V22.333C101.57 21.8801 101.397 21.5329 101.05 21.2913C100.702 21.0498 100.257 20.929 99.7135 20.929C99.1172 20.929 98.6304 21.0611 98.2529 21.3253C97.8831 21.5819 97.6604 21.9782 97.5849 22.5141H91.8331C91.9085 21.4574 92.2444 20.4836 92.8408 19.5929C93.4446 18.6947 94.324 17.9776 95.4789 17.4417C96.6338 16.8982 98.0756 16.6264 99.8041 16.6264C101.05 16.6264 102.167 16.7736 103.156 17.068C104.144 17.3548 104.986 17.7587 105.681 18.2795C106.375 18.7928 106.903 19.3967 107.266 20.0911C107.636 20.778 107.82 21.5253 107.82 22.333V34.2443H101.978V31.7986H101.842C101.495 32.4478 101.072 32.9724 100.574 33.3725C100.083 33.7725 99.5211 34.0631 98.887 34.2443C98.2605 34.4255 97.5698 34.516 96.815 34.516ZM98.853 30.5758C99.3286 30.5758 99.7739 30.4777 100.189 30.2814C100.612 30.0851 100.955 29.8021 101.219 29.4322C101.484 29.0623 101.616 28.6132 101.616 28.0848V26.6355C101.45 26.7035 101.272 26.7676 101.084 26.828C100.902 26.8884 100.706 26.945 100.495 26.9979C100.291 27.0507 100.072 27.0998 99.8381 27.1451C99.6116 27.1904 99.3739 27.2319 99.1248 27.2696C98.6417 27.3451 98.2454 27.4696 97.9359 27.6433C97.634 27.8093 97.4075 28.0169 97.2565 28.266C97.1131 28.5075 97.0414 28.7793 97.0414 29.0812C97.0414 29.5643 97.2113 29.9342 97.5509 30.1908C97.8906 30.4475 98.3246 30.5758 98.853 30.5758Z" fill="#D4D4D8"/>
<path d="M127.711 16.8529L121.869 34.2443H114.622L108.78 16.8529H115.347L118.155 28.3566H118.336L121.144 16.8529H127.711Z" fill="#D4D4D8"/>
<path d="M137.293 34.5613C135.436 34.5613 133.836 34.2066 132.492 33.497C131.156 32.7799 130.126 31.7533 129.401 30.4173C128.684 29.0737 128.326 27.4659 128.326 25.5939C128.326 23.7974 128.688 22.2273 129.413 20.8837C130.137 19.5401 131.16 18.4946 132.481 17.7474C133.802 17.0001 135.361 16.6264 137.157 16.6264C138.471 16.6264 139.659 16.8302 140.724 17.2378C141.788 17.6455 142.698 18.238 143.452 19.0155C144.207 19.7854 144.789 20.7214 145.196 21.8235C145.604 22.9255 145.808 24.1672 145.808 25.5486V26.9979H130.273V23.5558H140.056C140.048 23.0576 139.92 22.6198 139.671 22.2424C139.429 21.8574 139.101 21.5593 138.686 21.3479C138.278 21.129 137.814 21.0196 137.293 21.0196C136.787 21.0196 136.323 21.129 135.9 21.3479C135.478 21.5593 135.138 21.8537 134.881 22.2311C134.632 22.6085 134.5 23.0501 134.485 23.5558V27.2696C134.485 27.8282 134.602 28.3264 134.836 28.7642C135.07 29.202 135.406 29.5454 135.844 29.7945C136.282 30.0436 136.81 30.1682 137.429 30.1682C137.859 30.1682 138.252 30.1078 138.606 29.987C138.969 29.8662 139.278 29.6926 139.535 29.4662C139.792 29.2322 139.98 28.9529 140.101 28.6283H145.808C145.611 29.8361 145.147 30.8853 144.415 31.776C143.683 32.6591 142.713 33.346 141.505 33.8367C140.305 34.3198 138.901 34.5613 137.293 34.5613Z" fill="#D4D4D8"/>
<path d="M148.358 34.2443V16.8529H154.427V20.1591H154.608C154.925 18.9362 155.427 18.0417 156.114 17.4756C156.808 16.9095 157.62 16.6264 158.548 16.6264C158.82 16.6264 159.088 16.6491 159.352 16.6944C159.624 16.7321 159.884 16.7887 160.133 16.8642V22.1971C159.824 22.0914 159.443 22.0122 158.99 21.9593C158.537 21.9065 158.148 21.8801 157.824 21.8801C157.212 21.8801 156.661 22.0197 156.171 22.299C155.687 22.5708 155.306 22.9557 155.027 23.4539C154.748 23.9446 154.608 24.522 154.608 25.1863V34.2443H148.358Z" fill="#D4D4D8"/>
<path d="M162.183 34.2443V16.8529H168.433V34.2443H162.183ZM165.308 15.0413C164.462 15.0413 163.738 14.762 163.134 14.2034C162.53 13.6448 162.228 12.973 162.228 12.188C162.228 11.403 162.53 10.7312 163.134 10.1726C163.738 9.61401 164.462 9.33472 165.308 9.33472C166.161 9.33472 166.885 9.61401 167.482 10.1726C168.086 10.7312 168.388 11.403 168.388 12.188C168.388 12.973 168.086 13.6448 167.482 14.2034C166.885 14.762 166.161 15.0413 165.308 15.0413Z" fill="#D4D4D8"/>
<path d="M179.996 34.5613C178.109 34.5613 176.494 34.1877 175.15 33.4404C173.806 32.6856 172.776 31.6363 172.059 30.2927C171.342 28.9416 170.983 27.3753 170.983 25.5939C170.983 23.8125 171.342 22.25 172.059 20.9063C172.776 19.5552 173.806 18.506 175.15 17.7587C176.494 17.0038 178.109 16.6264 179.996 16.6264C181.883 16.6264 183.498 17.0038 184.842 17.7587C186.186 18.506 187.216 19.5552 187.933 20.9063C188.65 22.25 189.009 23.8125 189.009 25.5939C189.009 27.3753 188.65 28.9416 187.933 30.2927C187.216 31.6363 186.186 32.6856 184.842 33.4404C183.498 34.1877 181.883 34.5613 179.996 34.5613ZM180.041 29.9417C180.57 29.9417 181.026 29.7643 181.411 29.4096C181.796 29.0548 182.094 28.5491 182.306 27.8924C182.517 27.2356 182.623 26.4544 182.623 25.5486C182.623 24.6352 182.517 23.854 182.306 23.2048C182.094 22.5481 181.796 22.0424 181.411 21.6876C181.026 21.3328 180.57 21.1554 180.041 21.1554C179.483 21.1554 179.003 21.3328 178.603 21.6876C178.203 22.0424 177.898 22.5481 177.686 23.2048C177.475 23.854 177.369 24.6352 177.369 25.5486C177.369 26.4544 177.475 27.2356 177.686 27.8924C177.898 28.5491 178.203 29.0548 178.603 29.4096C179.003 29.7643 179.483 29.9417 180.041 29.9417Z" fill="#D4D4D8"/>
<path fill-rule="evenodd" clip-rule="evenodd" d="M9.86161 4.48734C8.21201 5.64079 6.72032 7.00454 5.42541 8.53972C10.717 8.04845 17.4399 8.85064 25.245 12.7532C33.5798 16.9205 40.2914 17.0614 44.9624 16.1605C44.5385 14.8772 44.0049 13.644 43.3729 12.4716C38.026 13.0355 31.1712 12.289 23.1825 8.29479C18.1096 5.75834 13.6378 4.71349 9.86161 4.48734ZM40.2495 8.02575C36.0269 3.30793 29.8906 0.338867 23.0607 0.338867C21.055 0.338867 19.1089 0.594965 17.2537 1.07621C19.7663 1.76181 22.4356 2.76484 25.245 4.16956C31.0939 7.09396 36.1435 8.03557 40.2495 8.02575ZM45.961 20.6647C40.3181 21.779 32.5257 21.5501 23.1825 16.8785C14.4475 12.511 7.49524 12.566 2.80638 13.608C2.56435 13.6617 2.32803 13.7182 2.09741 13.777C1.48352 15.1121 0.993496 16.5161 0.641898 17.974C1.01742 17.8736 1.40547 17.7783 1.80584 17.6893C7.49424 16.4252 15.5315 16.4801 25.245 21.3369C33.9801 25.7044 40.9323 25.6494 45.6212 24.6074C45.7819 24.5718 45.9402 24.5349 46.0958 24.4968C46.1129 24.1333 46.1214 23.7674 46.1214 23.3996C46.1214 22.4743 46.067 21.5616 45.961 20.6647ZM45.3429 29.3634C39.7547 30.3404 32.1893 29.9654 23.1825 25.4621C14.4475 21.0947 7.49524 21.1497 2.80638 22.1917C1.76559 22.4228 0.829309 22.7045 0.0033784 23.0019C0.00112652 23.1341 0 23.2667 0 23.3996C0 36.1357 10.3246 46.4603 23.0607 46.4603C33.7345 46.4603 42.7146 39.2087 45.3429 29.3634Z" fill="#7F57F1"/>
<path d="M295.316 14.7748H297.919V32.8314H305.728V35.4257H295.316V14.7748ZM313.837 14.7748C315.382 14.7748 316.891 15.2313 318.176 16.0865C319.46 16.9417 320.461 18.1572 321.052 19.5794C321.643 21.0016 321.797 22.5665 321.496 24.0762C321.195 25.5859 320.451 26.9727 319.359 28.0612C318.267 29.1498 316.875 29.891 315.36 30.1913C313.846 30.4916 312.276 30.3375 310.849 29.7484C309.422 29.1592 308.202 28.1617 307.344 26.8818C306.486 25.6019 306.028 24.0972 306.028 22.5578C306.028 21.5358 306.23 20.5236 306.622 19.5794C307.015 18.6351 307.59 17.7771 308.315 17.0545C309.04 16.3317 309.901 15.7583 310.849 15.3672C311.796 14.9762 312.812 14.7748 313.837 14.7748ZM313.837 27.7465C314.867 27.7465 315.873 27.4422 316.729 26.8721C317.586 26.3018 318.253 25.4915 318.647 24.5434C319.041 23.5953 319.144 22.5521 318.943 21.5455C318.742 20.5391 318.246 19.6146 317.518 18.8889C316.79 18.1633 315.863 17.6691 314.853 17.4689C313.843 17.2686 312.796 17.3714 311.845 17.7642C310.894 18.1568 310.08 18.8219 309.508 19.6751C308.936 20.5284 308.631 21.5316 308.631 22.5578C308.638 23.9295 309.189 25.2426 310.165 26.21C311.141 27.1774 312.461 27.7206 313.837 27.7206V27.7465ZM308.631 32.8573H319.043V35.4517H308.631V32.8573ZM341.95 35.4517H339.347V33.5967C337.668 34.7678 335.67 35.3972 333.62 35.3998C331.873 35.4115 330.151 34.9847 328.613 34.1588C327.074 33.3327 325.769 32.1343 324.818 30.6737C323.866 29.2131 323.299 27.5373 323.168 25.8006C323.037 24.0641 323.346 22.3225 324.068 20.7366C324.79 19.1506 325.9 17.771 327.297 16.7253C328.695 15.6793 330.333 15.0007 332.063 14.7519C333.792 14.5029 335.557 14.6919 337.193 15.3012C338.83 15.9105 340.287 16.9205 341.43 18.2383L339.516 19.9376C338.647 18.9693 337.549 18.2333 336.322 17.7966C335.094 17.3597 333.777 17.2359 332.489 17.4366C331.202 17.6373 329.985 18.156 328.95 18.9454C327.915 19.7348 327.094 20.7697 326.564 21.9561C326.033 23.1423 325.808 24.4421 325.911 25.7371C326.013 27.032 326.439 28.2808 327.149 29.3696C327.86 30.4585 328.833 31.3529 329.979 31.9711C331.125 32.5893 332.408 32.9118 333.711 32.9092C334.793 32.9114 335.862 32.6808 336.846 32.233C337.83 31.7852 338.705 31.1309 339.412 30.3149H332.384V27.7206H341.976L341.95 35.4517ZM351.529 14.8267C353.074 14.8267 354.584 15.2832 355.868 16.1384C357.152 16.9936 358.153 18.2091 358.744 19.6313C359.335 21.0535 359.49 22.6184 359.189 24.1281C358.887 25.6378 358.144 27.0246 357.051 28.1131C355.959 29.2017 354.568 29.9429 353.053 30.2432C351.538 30.5434 349.968 30.3893 348.541 29.8003C347.114 29.2111 345.894 28.2136 345.036 26.9337C344.178 25.6538 343.72 24.1491 343.72 22.6097C343.713 21.5811 343.911 20.5614 344.302 19.6094C344.693 18.6574 345.27 17.792 345.998 17.0636C346.727 16.3349 347.593 15.7576 348.547 15.3647C349.501 14.9719 350.523 14.7713 351.556 14.7748L351.529 14.8267ZM351.529 27.7984C352.559 27.7984 353.566 27.4941 354.422 26.924C355.278 26.3537 355.945 25.5434 356.339 24.5953C356.733 23.6472 356.836 22.604 356.636 21.5974C356.435 20.5909 355.939 19.6664 355.211 18.9408C354.483 18.2152 353.555 17.721 352.545 17.5208C351.535 17.3205 350.489 17.4233 349.537 17.816C348.586 18.2087 347.773 18.8737 347.201 19.727C346.629 20.5803 346.323 21.5835 346.323 22.6097C346.344 23.9768 346.905 25.2806 347.885 26.2376C348.864 27.1946 350.184 27.7276 351.556 27.7206L351.529 27.7984ZM346.323 32.9092H356.736V35.5036H346.323V32.9092ZM362.111 14.7748H364.714V35.3998H362.111V14.7748ZM368.319 14.7748H370.922C371.056 14.7607 371.192 14.7607 371.326 14.7748C372.416 14.6569 373.519 14.7693 374.563 15.1043C375.606 15.4395 376.568 15.9899 377.384 16.7198C378.2 17.4497 378.853 18.3428 379.299 19.3409C379.746 20.3389 379.977 21.4196 379.977 22.5124C379.977 23.6053 379.746 24.686 379.299 25.684C378.853 26.682 378.2 27.5751 377.384 28.3051C376.568 29.035 375.606 29.5854 374.563 29.9205C373.519 30.2556 372.416 30.3679 371.326 30.25H370.922V35.4387H368.319V14.7748ZM370.922 17.3692V27.6298H371.326C372.061 27.7273 372.809 27.6672 373.519 27.4533C374.229 27.2396 374.885 26.877 375.443 26.39C376.001 25.9031 376.448 25.3029 376.754 24.6297C377.061 23.9564 377.219 23.2257 377.219 22.4865C377.219 21.7472 377.061 21.0165 376.754 20.3433C376.448 19.6701 376.001 19.0699 375.443 18.5829C374.885 18.0958 374.229 17.7334 373.519 17.5195C372.809 17.3057 372.061 17.2457 371.326 17.3432C371.184 17.3579 371.044 17.3884 370.909 17.434L370.922 17.3692ZM389.677 16.2666L387.751 17.7843C387.419 17.4382 386.994 17.1938 386.527 17.0799C386.061 16.966 385.571 16.9873 385.116 17.1413C384.66 17.2951 384.259 17.5753 383.958 17.9489C383.657 18.3225 383.469 18.7739 383.417 19.2501V19.4576C383.417 20.5991 384.211 21.3644 385.76 21.4682C391.721 21.8314 394.454 24.6203 394.454 28.3043V28.5378C394.3 29.9958 393.729 31.3791 392.809 32.5232C391.889 33.6673 390.659 34.5238 389.265 34.9912C387.871 35.4584 386.371 35.5168 384.944 35.1592C383.518 34.8017 382.224 34.0432 381.217 32.9741L383.209 31.4434C383.672 31.9385 384.238 32.3272 384.868 32.5826C385.497 32.8379 386.174 32.9538 386.853 32.9222C388.107 32.9881 389.337 32.5687 390.288 31.7516C391.239 30.9347 391.836 29.7832 391.955 28.5378V28.3562C391.955 24.8927 388.545 24.2571 385.591 23.9717C382.857 23.7123 380.892 22.013 380.892 19.5614V19.4576C380.988 18.1812 381.573 16.9904 382.525 16.1312C383.477 15.2718 384.723 14.8095 386.007 14.8397C386.688 14.8197 387.364 14.942 387.995 15.199C388.624 15.456 389.193 15.8418 389.664 16.3314L389.677 16.2666ZM404.645 32.7665C407.886 32.7665 410.45 29.2772 410.45 24.9835V14.6062H413.053V24.9835C413.053 30.6911 409.305 35.296 404.697 35.296C400.09 35.296 396.341 30.6911 396.341 24.9835V14.6062H398.944V24.9835C398.84 29.342 401.404 32.8314 404.632 32.8314L404.645 32.7665ZM433.032 35.3609H430.428V22.5189L424.428 30.3019L418.428 22.5189V35.3998H415.825V14.7748L424.415 26.0472L433.006 14.7748L433.032 35.3609Z" fill="#A1A1AA"/>
<path d="M282.821 11.6747C282.821 9.80322 282.075 8.00835 280.747 6.68499C279.42 5.36162 277.619 4.61816 275.741 4.61816C273.863 4.61816 272.062 5.36162 270.734 6.68499C269.406 8.00835 268.66 9.80322 268.66 11.6747V33.0131L274.491 37.177V47.3209H276.99V37.177L282.821 33.0131V11.6747ZM280.322 23.6087L276.99 26.9294V23.8162L280.322 20.4955V23.6087ZM271.211 20.4955L274.543 23.8162V26.9294L271.211 23.6087V20.4955ZM280.322 16.9672L275.741 21.5332L271.159 16.8634V13.7502L275.741 18.3162L280.322 13.7502V16.9672ZM275.741 7.10872C276.748 7.11316 277.727 7.44667 278.526 8.05816C279.325 8.66964 279.901 9.52538 280.166 10.4943L275.741 14.8917L271.316 10.4943C271.571 9.51575 272.142 8.6484 272.943 8.02687C273.743 7.40533 274.726 7.06435 275.741 7.05682V7.10872ZM271.159 31.7549V27.0851L274.491 30.4058V34.1157L271.159 31.7549ZM276.99 34.1287V30.4058L280.322 27.0851V31.7419L276.99 34.1287Z" fill="#A1A1AA"/>
<path d="M495.689 23.0607C495.689 12.1898 495.689 6.75433 499.066 3.37716C502.443 0 507.878 0 518.749 0C529.62 0 535.056 0 538.433 3.37716C541.81 6.75433 541.81 12.1898 541.81 23.0607C541.81 33.9317 541.81 39.3671 538.433 42.7443C535.056 46.1215 529.62 46.1215 518.749 46.1215C507.878 46.1215 502.443 46.1215 499.066 42.7443C495.689 39.3671 495.689 33.9317 495.689 23.0607Z" fill="#232B36"/>
<path d="M523.362 29.9785C523.999 29.9785 524.526 30.4998 524.4 31.1239C524.176 32.2262 523.633 33.248 522.826 34.0551C521.745 35.1363 520.279 35.7437 518.75 35.7437C517.22 35.7437 515.754 35.1363 514.673 34.0551C513.866 33.248 513.323 32.2262 513.099 31.1239C512.973 30.4998 513.501 29.9785 514.137 29.9785H523.362Z" fill="#2DF8BB"/>
<path d="M525.786 20.497C525.171 20.6618 524.794 21.3053 525.106 21.8604C525.434 22.4448 525.888 22.9548 526.441 23.3506C527.308 23.9721 528.364 24.2738 529.429 24.2039C530.494 24.1341 531.501 23.6974 532.28 22.9679C533.059 22.2385 533.561 21.2616 533.7 20.2036C533.839 19.1457 533.607 18.0723 533.044 17.1661C532.481 16.26 531.62 15.5773 530.61 15.2343C529.599 14.8913 528.501 14.9092 527.503 15.2851C526.867 15.5245 526.296 15.8996 525.828 16.379C525.383 16.8346 525.58 17.5537 526.132 17.8721L526.717 18.2098C527.606 18.7235 527.431 20.0563 526.438 20.3222L525.786 20.497Z" fill="#2DF8BB"/>
<path d="M511.713 20.497C512.329 20.6618 512.705 21.3053 512.393 21.8604C512.065 22.4448 511.611 22.9548 511.059 23.3506C510.191 23.9721 509.135 24.2738 508.071 24.2039C507.006 24.1341 505.998 23.6974 505.219 22.9679C504.441 22.2385 503.939 21.2616 503.8 20.2036C503.66 19.1457 503.892 18.0723 504.456 17.1661C505.019 16.26 505.879 15.5773 506.89 15.2343C507.9 14.8913 508.998 14.9092 509.997 15.2851C510.633 15.5245 511.203 15.8996 511.672 16.379C512.117 16.8346 511.919 17.5537 511.368 17.8721L510.783 18.2098C509.893 18.7235 510.069 20.0563 511.061 20.3222L511.713 20.497Z" fill="#2DF8BB"/>
<path d="M566.928 34.2971L565.671 29.4947H560.211L558.982 34.2971H554.637L560.039 14.3442H566.099L571.502 34.2971H566.928ZM563.069 18.4891H562.841L560.897 26.0358H565.013L563.069 18.4891Z" fill="#E4E4E7"/>
<path d="M574.677 31.0097H579.194V16.4309H574.677V13.1436H583.425V31.0097H587.941V34.2971H574.677V31.0097Z" fill="#E4E4E7"/>
<path d="M600.692 34.2971C599.168 34.2971 598.034 33.8969 597.291 33.0965C596.547 32.2961 596.176 31.2765 596.176 30.0378V22.8342H592.174V19.5468H594.775C595.404 19.5468 595.852 19.4229 596.119 19.1752C596.385 18.9274 596.519 18.4701 596.519 17.8031V14.3442H600.407V19.5468H606.152V22.8342H600.407V31.0097H606.152V34.2971H600.692Z" fill="#E4E4E7"/>
<path d="M618.189 34.6401C615.712 34.6401 613.834 33.9541 612.558 32.582C611.281 31.2098 610.642 29.3422 610.642 26.9791C610.642 25.7785 610.804 24.7018 611.128 23.7489C611.471 22.777 611.948 21.9575 612.558 21.2905C613.186 20.6045 613.939 20.0899 614.816 19.7469C615.712 19.3848 616.712 19.2038 617.817 19.2038C618.923 19.2038 619.914 19.3848 620.79 19.7469C621.667 20.0899 622.41 20.5854 623.02 21.2334C623.63 21.8813 624.097 22.6722 624.421 23.606C624.764 24.5207 624.935 25.5498 624.935 26.6933V27.951H614.844V28.2083C614.844 29.1612 615.14 29.933 615.731 30.5238C616.321 31.0955 617.189 31.3813 618.332 31.3813C619.209 31.3813 619.961 31.2194 620.59 30.8954C621.219 30.5524 621.762 30.1045 622.22 29.5519L624.506 32.0388C623.935 32.7439 623.134 33.3538 622.105 33.8683C621.076 34.3829 619.771 34.6401 618.189 34.6401ZM617.846 22.2339C616.931 22.2339 616.198 22.5197 615.645 23.0914C615.111 23.6441 614.844 24.3969 614.844 25.3497V25.5784H620.79V25.3497C620.79 24.3778 620.524 23.6155 619.99 23.0629C619.475 22.5102 618.761 22.2339 617.846 22.2339Z" fill="#E4E4E7"/>
<path d="M629.568 31.0097H632.97V22.8342H629.568V19.5468H637.201V23.7203H637.401C637.534 23.1867 637.715 22.6722 637.944 22.1767C638.192 21.6621 638.497 21.2143 638.859 20.8332C639.24 20.433 639.697 20.1185 640.231 19.8898C640.764 19.6611 641.393 19.5468 642.117 19.5468H643.518V23.4345H640.374C639.326 23.4345 638.535 23.7489 638.001 24.3778C637.467 24.9876 637.201 25.7404 637.201 26.6361V31.0097H642.06V34.2971H629.568V31.0097Z" fill="#E4E4E7"/>
<path d="M647.379 13.1436H651.61V22.2339H651.81C652.172 21.3572 652.696 20.6331 653.382 20.0613C654.068 19.4896 655.002 19.2038 656.184 19.2038C657.003 19.2038 657.746 19.3562 658.413 19.6611C659.099 19.9661 659.681 20.433 660.157 21.0618C660.653 21.6907 661.034 22.4911 661.301 23.4631C661.586 24.435 661.729 25.5879 661.729 26.9219C661.729 28.256 661.586 29.4089 661.301 30.3808C661.034 31.3528 660.653 32.1532 660.157 32.7821C659.681 33.4109 659.099 33.8778 658.413 34.1828C657.746 34.4877 657.003 34.6401 656.184 34.6401C655.002 34.6401 654.068 34.3638 653.382 33.8111C652.696 33.2394 652.172 32.5057 651.81 31.61H651.61V34.2971H647.379V13.1436ZM654.354 31.3528C655.307 31.3528 656.041 31.0669 656.555 30.4952C657.07 29.9044 657.327 29.0945 657.327 28.0654V25.7785C657.327 24.7494 657.07 23.949 656.555 23.3773C656.041 22.7865 655.307 22.4911 654.354 22.4911C653.611 22.4911 652.963 22.6722 652.41 23.0343C651.877 23.3964 651.61 23.9681 651.61 24.7494V29.0945C651.61 29.8758 651.877 30.4475 652.41 30.8096C652.963 31.1717 653.611 31.3528 654.354 31.3528Z" fill="#E4E4E7"/>
<path d="M672.508 34.6401C671.365 34.6401 670.336 34.4686 669.421 34.1256C668.506 33.7635 667.725 33.249 667.077 32.582C666.448 31.915 665.962 31.105 665.619 30.1522C665.276 29.1993 665.105 28.1226 665.105 26.9219C665.105 25.7213 665.276 24.6446 665.619 23.6917C665.962 22.7389 666.448 21.9289 667.077 21.2619C667.725 20.5949 668.506 20.0899 669.421 19.7469C670.336 19.3848 671.365 19.2038 672.508 19.2038C673.652 19.2038 674.681 19.3848 675.596 19.7469C676.51 20.0899 677.282 20.5949 677.911 21.2619C678.559 21.9289 679.054 22.7389 679.397 23.6917C679.741 24.6446 679.912 25.7213 679.912 26.9219C679.912 28.1226 679.741 29.1993 679.397 30.1522C679.054 31.105 678.559 31.915 677.911 32.582C677.282 33.249 676.51 33.7635 675.596 34.1256C674.681 34.4686 673.652 34.6401 672.508 34.6401ZM672.508 31.4957C673.461 31.4957 674.204 31.2003 674.738 30.6095C675.272 30.0188 675.538 29.1802 675.538 28.094V25.7499C675.538 24.6637 675.272 23.8251 674.738 23.2344C674.204 22.6436 673.461 22.3482 672.508 22.3482C671.555 22.3482 670.812 22.6436 670.279 23.2344C669.745 23.8251 669.478 24.6637 669.478 25.7499V28.094C669.478 29.1802 669.745 30.0188 670.279 30.6095C670.812 31.2003 671.555 31.4957 672.508 31.4957Z" fill="#E4E4E7"/>
<path d="M684.03 34.2971V19.5468H688.261V22.2339H688.433C688.604 21.8146 688.814 21.4239 689.062 21.0618C689.309 20.6998 689.605 20.3853 689.948 20.1185C690.31 19.8327 690.72 19.6135 691.177 19.461C691.653 19.2895 692.187 19.2038 692.778 19.2038C693.483 19.2038 694.131 19.3276 694.722 19.5754C695.312 19.8041 695.817 20.1566 696.237 20.6331C696.656 21.1095 696.98 21.6907 697.208 22.3768C697.456 23.0629 697.58 23.8537 697.58 24.7494V34.2971H693.349V25.3211C693.349 23.4154 692.52 22.4626 690.862 22.4626C690.538 22.4626 690.214 22.5102 689.891 22.6055C689.586 22.6817 689.309 22.8151 689.062 23.0057C688.814 23.1772 688.614 23.3964 688.461 23.6632C688.328 23.93 688.261 24.2444 688.261 24.6065V34.2971H684.03Z" fill="#E4E4E7"/>
<path d="M709.388 34.6401C706.911 34.6401 705.034 33.9541 703.757 32.582C702.48 31.2098 701.841 29.3422 701.841 26.9791C701.841 25.7785 702.003 24.7018 702.327 23.7489C702.67 22.777 703.147 21.9575 703.757 21.2905C704.386 20.6045 705.138 20.0899 706.015 19.7469C706.911 19.3848 707.911 19.2038 709.017 19.2038C710.122 19.2038 711.113 19.3848 711.989 19.7469C712.866 20.0899 713.609 20.5854 714.219 21.2334C714.829 21.8813 715.296 22.6722 715.62 23.606C715.963 24.5207 716.134 25.5498 716.134 26.6933V27.951H706.044V28.2083C706.044 29.1612 706.339 29.933 706.93 30.5238C707.52 31.0955 708.388 31.3813 709.531 31.3813C710.408 31.3813 711.16 31.2194 711.789 30.8954C712.418 30.5524 712.961 30.1045 713.419 29.5519L715.706 32.0388C715.134 32.7439 714.333 33.3538 713.304 33.8683C712.275 34.3829 710.97 34.6401 709.388 34.6401ZM709.045 22.2339C708.13 22.2339 707.397 22.5197 706.844 23.0914C706.31 23.6441 706.044 24.3969 706.044 25.3497V25.5784H711.989V25.3497C711.989 24.3778 711.723 23.6155 711.189 23.0629C710.674 22.5102 709.96 22.2339 709.045 22.2339Z" fill="#E4E4E7"/>
<path d="M1026 34.3503C1031.4 34.3503 1035.78 29.9701 1035.78 24.5669C1035.78 19.1636 1031.4 14.7834 1026 14.7834V21.6318C1027.62 21.6318 1028.93 22.9459 1028.93 24.5669C1028.93 26.1879 1027.62 27.5019 1026 27.5019V34.3503Z" fill="#E11D48"/>
<path d="M1058.61 18.0448C1056.94 17.5152 1055.16 17.2295 1053.31 17.2295C1043.63 17.2295 1035.78 25.0774 1035.78 34.7581C1035.78 35.7298 1035.86 36.6831 1036.01 37.6117H1046.91C1046.52 36.74 1046.3 35.7744 1046.3 34.7581C1046.3 30.8858 1049.44 27.7467 1053.31 27.7467C1055.43 27.7467 1057.33 28.6844 1058.61 30.167V18.0448Z" fill="#FDA4AF"/>
<path d="M1027.72 5C1028.53 12.3375 1034.75 18.0446 1042.31 18.0446C1049.86 18.0446 1056.08 12.3375 1056.89 5H1046.4C1045.75 6.62423 1044.16 7.77196 1042.31 7.77196C1040.45 7.77196 1038.86 6.62423 1038.21 5H1027.72Z" fill="#FB7185"/>
<path d="M1085.17 13.145H1089.02C1091.23 13.145 1092.4 13.2066 1093.54 13.3605V9.23535C1092.37 9.38928 1091.23 9.45084 1089.02 9.45084H1076.83C1075.07 9.45084 1073.75 9.38928 1072.64 9.23535V13.3605C1073.72 13.2066 1075.04 13.145 1076.86 13.145H1081.01V29.9535C1081.01 31.6159 1080.95 32.6626 1080.77 33.9555H1085.41C1085.23 32.6934 1085.17 31.6159 1085.17 29.9535V13.145Z" fill="#E4E4E7"/>
<path d="M1095.91 9.45084V13.3605H1100.44V9.45084H1095.91ZM1095.91 16.2851C1096.1 17.5472 1096.16 18.5939 1096.16 20.2871V29.9535C1096.16 31.4928 1096.1 32.5702 1095.91 33.9555H1100.41C1100.25 32.6626 1100.19 31.6159 1100.19 29.9227V20.3179C1100.19 18.44 1100.25 17.4241 1100.41 16.2851H1095.91Z" fill="#E4E4E7"/>
<path d="M1108.7 33.9555C1108.52 32.6318 1108.46 31.462 1108.46 29.9535V23.735C1109.81 20.6873 1111.63 19.1481 1113.84 19.1481C1115.01 19.1481 1115.94 19.6098 1116.43 20.4102C1116.8 20.9951 1116.95 21.8263 1116.95 23.1193V29.9535C1116.95 31.5235 1116.89 32.5702 1116.74 33.9555H1121.2C1121.02 32.8165 1120.95 31.6467 1120.95 29.9535V22.5652C1120.95 20.5026 1120.65 19.2712 1119.91 18.2553C1118.8 16.7468 1117.04 15.9772 1114.67 15.9772C1111.9 15.9772 1110.27 16.8392 1108.39 19.2404C1108.46 18.4708 1108.46 18.3784 1108.46 17.9167V16.2851H1104.27C1104.45 17.5472 1104.52 18.5939 1104.52 20.2871V29.9535C1104.52 31.6775 1104.45 32.6318 1104.27 33.9555H1108.7Z" fill="#E4E4E7"/>
<path d="M1130.86 32.7242L1129.82 35.0946C1129.38 36.0489 1128.49 36.6338 1127.41 36.6338C1126.71 36.6338 1126.12 36.4799 1125.26 36.1105L1124.55 39.6199C1125.97 39.897 1126.86 39.9894 1127.78 39.9894C1130.65 39.9894 1132.46 38.9119 1133.45 36.5723L1140.47 20.1024C1141.39 17.9474 1141.94 16.6853 1142.13 16.2851H1137.54C1137.36 17.2702 1137.11 18.0398 1136.37 19.9177L1132.96 28.6298L1129.2 19.8869C1128.65 18.6247 1128.18 17.1778 1128.03 16.2851H1123.35C1123.72 16.9623 1123.75 17.0547 1125.11 20.1024L1130.86 32.7242Z" fill="#E4E4E7"/>
<path d="M1143.94 36.7877C1146.04 39.1582 1148.07 39.9894 1151.67 39.9894C1154.84 39.9894 1157.4 39.2813 1158.94 38.0191C1160.72 36.5107 1161.52 34.1403 1161.52 30.4461V20.1332C1161.52 18.4708 1161.58 17.6088 1161.74 16.2851H1157.61V17.7012C1157.61 18.0398 1157.61 18.1014 1157.67 18.7171C1156.35 16.8392 1154.53 16.008 1151.79 16.008C1146.81 16.008 1143.57 19.4559 1143.57 24.7817C1143.57 30.0459 1146.71 33.4014 1151.61 33.4014C1154.29 33.4014 1156.1 32.5394 1157.64 30.6C1157.58 32.6934 1157.37 33.7708 1156.84 34.6944C1155.98 36.172 1154.16 37.0032 1151.79 37.0032C1149.58 37.0032 1148.22 36.326 1147.02 34.6636L1143.94 36.7877ZM1147.61 24.874C1147.61 21.2106 1149.52 18.9018 1152.59 18.9018C1153.7 18.9018 1154.72 19.302 1155.58 20.01C1156.81 21.0567 1157.43 22.596 1157.43 24.5662C1157.43 25.9823 1157.15 27.1213 1156.57 28.0756C1155.7 29.5225 1153.98 30.5076 1152.29 30.5076C1151.12 30.5076 1149.79 29.9535 1149.02 29.1223C1148.1 28.1988 1147.61 26.6903 1147.61 24.874Z" fill="#E4E4E7"/>
<path d="M1174.09 34.5405C1179.57 34.5405 1183.18 30.7847 1183.18 25.0895C1183.18 19.3943 1179.64 15.7617 1174.06 15.7617C1168.46 15.7617 1164.89 19.4251 1164.89 25.1511C1164.89 30.9078 1168.46 34.5405 1174.09 34.5405ZM1174.06 18.9633C1177.33 18.9633 1179.2 21.2414 1179.2 25.2127C1179.2 28.9684 1177.23 31.2773 1174.03 31.2773C1170.83 31.2773 1168.86 28.9376 1168.86 25.1511C1168.86 21.303 1170.83 18.9633 1174.06 18.9633Z" fill="#E4E4E7"/>
<path d="M1190.68 33.9555C1190.5 32.6318 1190.44 31.462 1190.44 29.9535V23.735C1191.79 20.6873 1193.61 19.1481 1195.83 19.1481C1197 19.1481 1197.92 19.6098 1198.41 20.4102C1198.78 20.9951 1198.93 21.8263 1198.93 23.1193V29.9535C1198.93 31.5235 1198.87 32.5702 1198.72 33.9555H1203.18C1203 32.8165 1202.94 31.6467 1202.94 29.9535V22.5652C1202.94 20.5026 1202.63 19.2712 1201.89 18.2553C1200.78 16.7468 1199.03 15.9772 1196.66 15.9772C1193.89 15.9772 1192.25 16.8392 1190.38 19.2404C1190.44 18.4708 1190.44 18.3784 1190.44 17.9167V16.2851H1186.25C1186.44 17.5472 1186.5 18.5939 1186.5 20.2871V29.9535C1186.5 31.6775 1186.44 32.6318 1186.25 33.9555H1190.68Z" fill="#E4E4E7"/>
<path d="M1223.53 26.1362C1223.47 25.4282 1223.47 25.3358 1223.47 25.2742C1223.37 23.1809 1223.16 22.0726 1222.57 20.5949C1221.34 17.5165 1218.51 15.7309 1214.91 15.7309C1209.64 15.7309 1206.23 19.4559 1206.23 25.1511C1206.23 30.9078 1209.67 34.5405 1215.12 34.5405C1217.71 34.5405 1219.86 33.7401 1221.46 32.17C1222.23 31.4004 1222.63 30.8155 1223.34 29.3378L1219.71 28.168C1219.4 28.9992 1219.19 29.3378 1218.82 29.7688C1217.92 30.7539 1216.63 31.3081 1215.12 31.3081C1213.55 31.3081 1212.17 30.6924 1211.27 29.5841C1210.57 28.6913 1210.29 27.8294 1210.14 26.1362H1223.53ZM1210.23 23.0885C1210.69 20.5026 1212.44 18.9018 1214.85 18.9018C1216.29 18.9018 1217.34 19.302 1218.17 20.1332C1218.94 20.9028 1219.31 21.734 1219.53 23.0885H1210.23Z" fill="#E4E4E7"/>
<path d="M822.057 19.8577C823.429 18.7081 824.302 16.9814 824.302 15.0508C824.302 13.1202 823.429 11.3935 822.057 10.2439C822.214 10.1677 822.365 10.0851 822.51 9.99545C823.42 9.42927 824.495 9.10229 825.646 9.10229C828.931 9.10229 831.595 11.7656 831.595 15.0508C831.595 18.336 828.931 20.9993 825.646 20.9993C824.495 20.9993 823.42 20.6723 822.51 20.1062C822.365 20.0166 822.214 19.9339 822.057 19.8577Z" fill="url(#paint0_linear_75_95)"/>
<path d="M820.405 15.9871C821.019 14.3052 820.912 12.3733 819.946 10.7014C818.981 9.02944 817.362 7.97056 815.598 7.66138C815.696 7.51677 815.786 7.36945 815.866 7.21973C816.371 6.27414 817.139 5.45359 818.136 4.87802C820.981 3.23539 824.619 4.2102 826.262 7.05532C827.904 9.90045 826.929 13.5385 824.084 15.1811C823.087 15.7567 821.993 16.0109 820.921 15.9759C820.752 15.9703 820.579 15.9745 820.405 15.9871Z" fill="url(#paint1_linear_75_95)"/>
<path d="M817.038 13.4614C816.729 11.6978 815.67 10.0784 813.998 9.1131C812.326 8.1478 810.395 8.04049 808.713 8.65455C808.725 8.48024 808.729 8.30777 808.724 8.1381C808.689 7.06643 808.943 5.97216 809.519 4.97524C811.161 2.13012 814.799 1.15531 817.644 2.79794C820.49 4.44057 821.464 8.07862 819.822 10.9238C819.246 11.9207 818.426 12.688 817.48 13.1935C817.33 13.2735 817.183 13.3633 817.038 13.4614Z" fill="url(#paint2_linear_75_95)"/>
<path d="M812.86 12.9571C811.711 11.5843 809.984 10.7114 808.053 10.7114C806.123 10.7114 804.396 11.5843 803.246 12.9571C803.17 12.7998 803.087 12.6484 802.998 12.5041C802.432 11.5936 802.105 10.5189 802.105 9.3677C802.105 6.08243 804.768 3.41919 808.053 3.41919C811.338 3.41919 814.002 6.08243 814.002 9.3677C814.002 10.5189 813.675 11.5936 813.109 12.5041C813.019 12.6484 812.936 12.7998 812.86 12.9571Z" fill="url(#paint3_linear_75_95)"/>
<path d="M808.988 14.6097C807.307 13.9956 805.375 14.1029 803.703 15.0682C802.031 16.0335 800.972 17.6529 800.663 19.4165C800.518 19.3183 800.371 19.2286 800.221 19.1486C799.275 18.643 798.455 17.8757 797.879 16.8788C796.237 14.0337 797.211 10.3957 800.057 8.75303C802.902 7.11038 806.54 8.08519 808.182 10.9303C808.758 11.9272 809.012 13.0215 808.977 14.0932C808.972 14.2628 808.976 14.4353 808.988 14.6097Z" fill="url(#paint4_linear_75_95)"/>
<path d="M806.462 17.9759C804.698 18.2851 803.079 19.3439 802.113 21.0159C801.148 22.6878 801.041 24.6197 801.655 26.3016C801.48 26.2889 801.308 26.2848 801.138 26.2903C800.067 26.3254 798.972 26.0712 797.975 25.4956C795.13 23.8529 794.155 20.2149 795.798 17.3698C797.441 14.5247 801.079 13.5498 803.924 15.1925C804.921 15.7681 805.688 16.5886 806.194 17.5341C806.274 17.6839 806.363 17.8312 806.462 17.9759Z" fill="url(#paint5_linear_75_95)"/>
<path d="M805.956 22.1544C804.584 23.304 803.711 25.0307 803.711 26.9612C803.711 28.8918 804.584 30.6185 805.956 31.7681C805.799 31.8442 805.648 31.927 805.504 32.0166C804.593 32.5827 803.518 32.9097 802.367 32.9097C799.082 32.9097 796.419 30.2465 796.419 26.9612C796.419 23.6759 799.082 21.0127 802.367 21.0127C803.518 21.0127 804.593 21.3397 805.504 21.9059C805.648 21.9955 805.799 22.0782 805.956 22.1544Z" fill="url(#paint6_linear_75_95)"/>
<path d="M807.608 26.0264C806.994 27.7083 807.101 29.6402 808.066 31.3121C809.032 32.9842 810.651 34.0429 812.415 34.3521C812.316 34.4968 812.227 34.6441 812.147 34.7939C811.641 35.7394 810.874 36.5599 809.877 37.1355C807.032 38.7782 803.394 37.8033 801.751 34.9582C800.108 32.1131 801.083 28.4751 803.928 26.8324C804.925 26.2568 806.02 26.0026 807.091 26.0377C807.261 26.0432 807.433 26.0391 807.608 26.0264Z" fill="url(#paint7_linear_75_95)"/>
<path d="M810.975 28.5527C811.284 30.3164 812.343 31.9358 814.015 32.901C815.686 33.8663 817.618 33.9736 819.3 33.3596C819.288 33.5339 819.284 33.7063 819.289 33.8761C819.324 34.9477 819.07 36.042 818.494 37.0389C816.852 39.8841 813.214 40.8588 810.368 39.2161C807.523 37.5736 806.549 33.9356 808.191 31.0904C808.767 30.0935 809.587 29.3262 810.533 28.8207C810.683 28.7406 810.83 28.6508 810.975 28.5527Z" fill="url(#paint8_linear_75_95)"/>
<path d="M815.153 29.0586C816.303 30.4314 818.03 31.3043 819.96 31.3043C821.891 31.3043 823.618 30.4314 824.767 29.0586C824.843 29.2159 824.926 29.3673 825.016 29.5115C825.582 30.422 825.909 31.4969 825.909 32.648C825.909 35.9333 823.246 38.5965 819.96 38.5965C816.675 38.5965 814.012 35.9333 814.012 32.648C814.012 31.4969 814.339 30.422 814.905 29.5115C814.995 29.3673 815.077 29.2159 815.153 29.0586Z" fill="url(#paint9_linear_75_95)"/>
<path d="M819.025 27.4067C820.707 28.0207 822.639 27.9134 824.311 26.9482C825.983 25.9829 827.042 24.3635 827.351 22.5999C827.495 22.6979 827.643 22.7878 827.792 22.8678C828.738 23.3733 829.559 24.1406 830.134 25.1375C831.777 27.9827 830.802 31.6207 827.957 33.2634C825.112 34.906 821.474 33.9312 819.831 31.086C819.255 30.0891 819.001 28.9948 819.036 27.9232C819.042 27.7536 819.038 27.5811 819.025 27.4067Z" fill="url(#paint10_linear_75_95)"/>
<path d="M825.904 20.9935C825.903 20.9956 825.902 20.9977 825.9 20.9998C824.935 22.6717 823.316 23.7306 821.552 24.0398C821.65 24.1844 821.74 24.3318 821.82 24.4814C822.326 25.4271 823.093 26.2476 824.09 26.8231C826.935 28.4658 830.573 27.4909 832.216 24.6459C833.624 22.2066 833.108 19.1847 831.14 17.3369C830.275 19.4124 828.268 20.8928 825.904 20.9935Z" fill="url(#paint11_linear_75_95)"/>
<path d="M846.561 34.123V10.1348H856.025C857.836 10.1348 859.383 10.4589 860.663 11.107C861.952 11.7473 862.932 12.657 863.603 13.8361C864.282 15.0074 864.622 16.3856 864.622 17.9708C864.622 19.5638 864.279 20.9342 863.591 22.082C862.904 23.2221 861.909 24.0967 860.605 24.7058C859.308 25.3148 857.739 25.6194 855.896 25.6194H849.559V21.5433H855.076C856.044 21.5433 856.849 21.4105 857.489 21.145C858.129 20.8795 858.606 20.4813 858.918 19.9503C859.238 19.4193 859.398 18.7595 859.398 17.9708C859.398 17.1743 859.238 16.5028 858.918 15.9562C858.606 15.4096 858.125 14.9957 857.477 14.7146C856.837 14.4257 856.029 14.2812 855.053 14.2812H851.632V34.123H846.561ZM859.515 23.2065L865.477 34.123H859.878L854.045 23.2065H859.515Z" fill="#D4D4D8"/>
<path d="M868.113 34.123V16.1319H873.102V34.123H868.113ZM870.619 13.8127C869.877 13.8127 869.241 13.5667 868.71 13.0748C868.187 12.575 867.925 11.9777 867.925 11.2827C867.925 10.5955 868.187 10.006 868.71 9.51404C869.241 9.01428 869.877 8.7644 870.619 8.7644C871.361 8.7644 871.993 9.01428 872.517 9.51404C873.048 10.006 873.313 10.5955 873.313 11.2827C873.313 11.9777 873.048 12.575 872.517 13.0748C871.993 13.5667 871.361 13.8127 870.619 13.8127Z" fill="#D4D4D8"/>
<path d="M883.729 34.4158C882.362 34.4158 881.125 34.0644 880.016 33.3616C878.915 32.651 878.04 31.6086 877.392 30.2343C876.752 28.8521 876.432 27.1577 876.432 25.1508C876.432 23.0894 876.764 21.3754 877.427 20.0089C878.091 18.6345 878.973 17.6077 880.074 16.9283C881.183 16.2412 882.398 15.8976 883.717 15.8976C884.725 15.8976 885.564 16.0694 886.235 16.413C886.915 16.7487 887.461 17.1704 887.875 17.678C888.297 18.1777 888.617 18.6697 888.836 19.1538H888.988V10.1348H893.966V34.123H889.047V31.2416H888.836C888.601 31.7413 888.27 32.2372 887.84 32.7291C887.418 33.2133 886.868 33.6154 886.189 33.9356C885.517 34.2557 884.697 34.4158 883.729 34.4158ZM885.31 30.4451C886.114 30.4451 886.794 30.2265 887.348 29.7892C887.91 29.3441 888.34 28.7233 888.637 27.9268C888.941 27.1303 889.093 26.1972 889.093 25.1274C889.093 24.0576 888.945 23.1284 888.648 22.3397C888.352 21.5511 887.922 20.942 887.36 20.5125C886.798 20.083 886.114 19.8683 885.31 19.8683C884.49 19.8683 883.799 20.0908 883.237 20.5359C882.675 20.981 882.249 21.5979 881.96 22.3866C881.671 23.1753 881.527 24.0889 881.527 25.1274C881.527 26.1738 881.671 27.0991 881.96 27.9034C882.257 28.6999 882.683 29.3246 883.237 29.7775C883.799 30.2226 884.49 30.4451 885.31 30.4451Z" fill="#D4D4D8"/>
<path d="M906.197 34.4744C904.378 34.4744 902.804 34.0878 901.477 33.3148C900.157 32.5339 899.138 31.4485 898.42 30.0586C897.701 28.6608 897.342 27.0405 897.342 25.1977C897.342 23.3392 897.701 21.715 898.42 20.3251C899.138 18.9274 900.157 17.842 901.477 17.0689C902.804 16.288 904.378 15.8976 906.197 15.8976C908.017 15.8976 909.586 16.288 910.906 17.0689C912.233 17.842 913.256 18.9274 913.975 20.3251C914.693 21.715 915.052 23.3392 915.052 25.1977C915.052 27.0405 914.693 28.6608 913.975 30.0586C913.256 31.4485 912.233 32.5339 910.906 33.3148C909.586 34.0878 908.017 34.4744 906.197 34.4744ZM906.221 30.6091C907.048 30.6091 907.74 30.3748 908.294 29.9063C908.848 29.43 909.266 28.7819 909.547 27.962C909.836 27.142 909.981 26.2089 909.981 25.1626C909.981 24.1162 909.836 23.1831 909.547 22.3632C909.266 21.5433 908.848 20.8951 908.294 20.4188C907.74 19.9425 907.048 19.7043 906.221 19.7043C905.385 19.7043 904.682 19.9425 904.112 20.4188C903.55 20.8951 903.125 21.5433 902.836 22.3632C902.555 23.1831 902.414 24.1162 902.414 25.1626C902.414 26.2089 902.555 27.142 902.836 27.962C903.125 28.7819 903.55 29.43 904.112 29.9063C904.682 30.3748 905.385 30.6091 906.221 30.6091Z" fill="#D4D4D8"/>
<path d="M918.297 34.123V16.1319H923.134V19.2709H923.322C923.65 18.1543 924.2 17.311 924.973 16.7409C925.746 16.1631 926.636 15.8742 927.644 15.8742C927.894 15.8742 928.163 15.8898 928.452 15.921C928.741 15.9523 928.995 15.9952 929.213 16.0499V20.4774C928.979 20.4071 928.655 20.3446 928.241 20.29C927.827 20.2353 927.449 20.208 927.105 20.208C926.371 20.208 925.715 20.3681 925.137 20.6882C924.567 21.0006 924.114 21.4378 923.778 22.0001C923.45 22.5623 923.287 23.2104 923.287 23.9444V34.123H918.297Z" fill="#D4D4D8"/>
<path d="M931.793 34.123V16.1319H936.783V34.123H931.793ZM934.3 13.8127C933.558 13.8127 932.921 13.5667 932.39 13.0748C931.867 12.575 931.606 11.9777 931.606 11.2827C931.606 10.5955 931.867 10.006 932.39 9.51404C932.921 9.01428 933.558 8.7644 934.3 8.7644C935.041 8.7644 935.674 9.01428 936.197 9.51404C936.728 10.006 936.994 10.5955 936.994 11.2827C936.994 11.9777 936.728 12.575 936.197 13.0748C935.674 13.5667 935.041 13.8127 934.3 13.8127Z" fill="#D4D4D8"/>
<path d="M945.91 34.4627C944.762 34.4627 943.739 34.2635 942.841 33.8653C941.943 33.4592 941.233 32.8619 940.71 32.0732C940.194 31.2767 939.936 30.285 939.936 29.0981C939.936 28.0986 940.12 27.2592 940.487 26.5798C940.854 25.9005 941.354 25.3539 941.986 24.94C942.619 24.5262 943.337 24.2138 944.141 24.003C944.954 23.7921 945.805 23.6438 946.695 23.5579C947.741 23.4486 948.585 23.347 949.225 23.2533C949.865 23.1518 950.33 23.0035 950.619 22.8083C950.908 22.613 951.052 22.3241 951.052 21.9415V21.8712C951.052 21.1294 950.818 20.5555 950.349 20.1494C949.889 19.7434 949.233 19.5403 948.382 19.5403C947.484 19.5403 946.769 19.7395 946.238 20.1377C945.707 20.5281 945.356 21.0201 945.184 21.6135L940.569 21.2387C940.803 20.1455 941.264 19.2007 941.951 18.4042C942.638 17.5999 943.525 16.983 944.61 16.5535C945.703 16.1162 946.968 15.8976 948.405 15.8976C949.404 15.8976 950.361 16.0147 951.275 16.249C952.196 16.4832 953.012 16.8464 953.723 17.3383C954.441 17.8302 955.007 18.4627 955.421 19.2358C955.835 20.001 956.042 20.9186 956.042 21.9883V34.123H951.31V31.6281H951.169C950.88 32.1903 950.494 32.6862 950.01 33.1157C949.525 33.5373 948.944 33.8692 948.264 34.1113C947.585 34.3455 946.8 34.4627 945.91 34.4627ZM947.339 31.019C948.073 31.019 948.721 30.8746 949.283 30.5857C949.846 30.2889 950.287 29.8907 950.607 29.3909C950.927 28.8912 951.087 28.3251 951.087 27.6926V25.7833C950.931 25.8849 950.716 25.9786 950.443 26.0645C950.178 26.1425 949.877 26.2167 949.541 26.287C949.205 26.3495 948.87 26.408 948.534 26.4627C948.198 26.5096 947.893 26.5525 947.62 26.5915C947.035 26.6774 946.523 26.8141 946.086 27.0015C945.649 27.1889 945.309 27.4427 945.067 27.7628C944.825 28.0752 944.704 28.4656 944.704 28.9341C944.704 29.6135 944.95 30.1328 945.442 30.492C945.941 30.8433 946.574 31.019 947.339 31.019Z" fill="#D4D4D8"/>
<defs>
<linearGradient id="paint0_linear_75_95" x1="822.801" y1="9.10229" x2="822.801" y2="20.9993" gradientUnits="userSpaceOnUse">
<stop stop-color="#25136D"/>
<stop offset="1" stop-color="#3D9BA2"/>
</linearGradient>
<linearGradient id="paint1_linear_75_95" x1="815.672" y1="6.30031" x2="821.621" y2="16.6035" gradientUnits="userSpaceOnUse">
<stop stop-color="#25136D"/>
<stop offset="1" stop-color="#3D9BA2"/>
</linearGradient>
<linearGradient id="paint2_linear_75_95" x1="808.096" y1="7.43874" x2="818.399" y2="13.3872" gradientUnits="userSpaceOnUse">
<stop stop-color="#25136D"/>
<stop offset="1" stop-color="#3D9BA2"/>
</linearGradient>
<linearGradient id="paint3_linear_75_95" x1="802.105" y1="12.2122" x2="814.002" y2="12.2122" gradientUnits="userSpaceOnUse">
<stop stop-color="#25136D"/>
<stop offset="1" stop-color="#3D9BA2"/>
</linearGradient>
<linearGradient id="paint4_linear_75_95" x1="799.302" y1="19.3423" x2="809.605" y2="13.3938" gradientUnits="userSpaceOnUse">
<stop stop-color="#25136D"/>
<stop offset="1" stop-color="#3D9BA2"/>
</linearGradient>
<linearGradient id="paint5_linear_75_95" x1="800.439" y1="26.9179" x2="806.387" y2="16.6148" gradientUnits="userSpaceOnUse">
<stop stop-color="#25136D"/>
<stop offset="1" stop-color="#3D9BA2"/>
</linearGradient>
<linearGradient id="paint6_linear_75_95" x1="805.212" y1="32.9097" x2="805.212" y2="21.0127" gradientUnits="userSpaceOnUse">
<stop stop-color="#25136D"/>
<stop offset="1" stop-color="#3D9BA2"/>
</linearGradient>
<linearGradient id="paint7_linear_75_95" x1="812.34" y1="35.7132" x2="806.392" y2="25.4101" gradientUnits="userSpaceOnUse">
<stop stop-color="#25136D"/>
<stop offset="1" stop-color="#3D9BA2"/>
</linearGradient>
<linearGradient id="paint8_linear_75_95" x1="819.917" y1="34.5755" x2="809.614" y2="28.6268" gradientUnits="userSpaceOnUse">
<stop stop-color="#25136D"/>
<stop offset="1" stop-color="#3D9BA2"/>
</linearGradient>
<linearGradient id="paint9_linear_75_95" x1="825.909" y1="29.8034" x2="814.012" y2="29.8034" gradientUnits="userSpaceOnUse">
<stop stop-color="#25136D"/>
<stop offset="1" stop-color="#3D9BA2"/>
</linearGradient>
<linearGradient id="paint10_linear_75_95" x1="828.712" y1="22.6741" x2="818.409" y2="28.6226" gradientUnits="userSpaceOnUse">
<stop stop-color="#25136D"/>
<stop offset="1" stop-color="#3D9BA2"/>
</linearGradient>
<linearGradient id="paint11_linear_75_95" x1="827.575" y1="15.0978" x2="821.626" y2="25.4009" gradientUnits="userSpaceOnUse">
<stop stop-color="#25136D"/>
<stop offset="1" stop-color="#3D9BA2"/>
</linearGradient>
</defs>
</svg>
